<?xml version="1.0" encoding="utf-8"?><svg xmlns="http://www.w3.org/2000/svg" width="450" height="100"><path fill="#fff" d="M99.26 47.76c1.15.54 1.86.9 2.57 1.16 6.9 2.83 10.04 8.18 10.22 15.44.35 15.36-8.98 26.64-24.52 28.95-7.4 1.1-14.9 1.4-22.4 1.6-8.1.3-16.2.1-24.3.1-2.87 0-4.6-1.8-4.42-4.4.2-1.9 1.6-3.4 3.5-3.6.8-.1 1.5 0 2.3 0 2.8 0 4.7-1.7 4.6-4.1 0-2.3-1.9-3.9-4.5-3.9H22.8c-1.63 0-3-.5-3.84-2-1.57-2.8.4-5.8 3.8-5.8H39.7c2.17-.1 3.8-1.8 3.85-3.9 0-2-1.54-3.7-3.62-3.9h-3.1c-2.64 0-4.4-1.7-4.5-4.2-.1-2.6 1.64-4.52 4.3-4.7 2.4-.1 4.73-.04 7.1-.04h5.16c2.6-.06 4.3-1.5 4.4-3.86.1-2.4-1.7-4.2-4.3-4.2-5-.06-9.9.1-14.9.12-2 .03-3.8-.4-4.83-2.3-1.55-2.9.53-6.17 4.03-6.26 3.4-.07 6.8.06 10.2-.03 2.25 0 3.9-1.6 4.06-3.64.14-2.14-1.15-3.77-3.45-4.26-.7-.1-1.46-.15-2.2-.15-5.4 0-10.8 0-16.3-.08-1.95 0-3.4-1.3-3.7-3.1-.3-1.9.56-3.7 2.3-4.4.7-.25 1.5-.3 2.3-.3 5.88-.04 11.7 0 17.6 0 .55 0 1.1.05 1.66-.04 2.3-.3 4-2.14 4-4.3-.05-2.18-1.8-4-4.16-4.1-2.5-.07-5 0-7.5 0-2.83 0-4.56-1.6-4.56-4.1C33.5 6.7 35.2 5 38 5c16.82 0 33.64-.06 50.46.03 5.3.04 10.57.44 15.62 2.43 8.14 3.18 11.9 9.06 11.2 17.78-.18 2.26-.4 4.5-.93 6.68-1.58 6.86-5.7 11.73-12.16 14.56-.8.35-1.6.66-2.9 1.23zM72.3 75.66v.16c1.7-.1 3.42-.13 5.1-.22 6.1-.3 9.33-3.58 9.56-9.73.17-4.52-1.73-7-6.15-7.48-4.2-.5-8.5-.6-12.7-.8-.4 0-1.2.4-1.3.8-1 4.7-2.1 9.5-2.9 14.3-.3 1.8.7 2.8 2.6 2.8 2 .1 3.9 0 5.9 0zM70.77 39.3c3.72 0 7.2.14 10.62-.03 6.4-.27 9.7-4.08 9.2-10.54-.2-2.92-1.8-4.86-4.7-5.22-2.7-.3-5.5-.3-8.2-.3-2.4 0-3.6 1-4.2 3.3-1 4.2-1.9 8.4-2.9 12.9zm-52.1 6.83c-.74 0-1.45.08-2.16 0-2.2-.27-3.8-2.22-3.7-4.43.1-2.17 1.7-3.94 3.9-4.12 1.3-.1 2.6-.1 3.9-.04 2.6.1 4.3 1.8 4.3 4.25s-1.8 4.2-4.3 4.3h-1.8zM8.05 78.73c-2.56-.03-4.2-1.58-4.15-3.97.03-2.35 1.7-3.9 4.32-3.85 2.52 0 4.34 1.7 4.34 4-.04 2.4-1.86 4-4.52 3.9zm114.32-22.3c.7-4.06 4.65-7.38 8.72-7.38s6.8 3.36 6.1 7.4l-5.3 29.85c-.7 4.1-4.7 7.4-8.8 7.4-4.1 0-6.8-3.34-6.1-7.4l5.2-29.84zm10.05-25.3h3.68c3.4 0 5.7 2.78 5.14 6.2-.62 3.4-3.9 6.2-7.3 6.2h-3.72c-3.4-.02-5.7-2.8-5.14-6.2.62-3.42 3.9-6.2 7.35-6.2zm16.56 18.54h2.7l1.37-5.9c.8-3.5 4.3-6.36 7.88-6.36 3.77 0 6.25 3.1 5.6 6.8l-1 5.5h4.7c2.7 0 4.47 2.2 4 4.9-.5 2.7-3.02 5-5.72 5h-4.3L161 77.3c-.8 4.55 1.57 5.43 3.26 5.96 3.17 1 5.38 2 4.9 4.8-1.02 5.9-6.86 6.07-11.9 6.07-10.45 0-13.1-5.27-11.2-15.54l3.45-19.1h-2.2c-2.7 0-4.5-2.2-4-4.9s3-5 5.7-5zm139.77 6.77c.7-4.07 4.64-7.4 8.7-7.4s6.83 3.37 6.12 7.4L298.3 86.3c-.72 4.08-4.66 7.4-8.73 7.4s-6.82-3.36-6.1-7.4l5.26-29.86zm10.04-25.32h3.6c3.4 0 5.7 2.8 5.1 6.2-.7 3.4-3.9 6.2-7.3 6.2h-3.7c-3.4 0-5.7-2.8-5.1-6.2.5-3.4 3.8-6.2 7.3-6.2zm15.2 24.8c.6-3.78 4.3-6.87 8-6.87 3.8 0 6.4 3.1 5.7 6.86l-.2 1.1c2.9-4.2 8-8.1 15.5-8.1 11 0 14 7 12.3 16.9l-3.6 20.6c-.7 4.1-4.7 7.4-8.7 7.4s-6.8-3.3-6.1-7.4l3.2-18.3c1.2-6.7-2.4-7.9-4.9-7.9-3 0-7.5 1.5-8.9 9.8l-2.9 16.5c-.7 4.1-4.7 7.4-8.8 7.4s-6.8-3.3-6.1-7.4l5.5-30.6zm74.4-7.36c14.1 0 19.9 10.45 18.3 19.74-.8 4.47-2.7 7-7.8 7h-23.5c-.4 5.17 2.4 8.53 7.4 8.53 6 0 7.5-4.78 12.4-4.78 3.2 0 5.5 2.7 4.9 6.16-1.2 6.5-10.2 9.1-17.9 9.1-15.1 0-22.8-8.8-20.3-22.8 2.2-13.2 12.5-22.9 26.4-22.9zm4.3 18.1c.6-5.1-1.8-8.27-6.3-8.27s-8 3.1-9.4 8.2h15.7zm23.8-10.76c.6-3.76 4.3-6.85 8-6.85 3.8 0 6.4 3.1 5.7 6.86l-.4 1.9h.3c2.2-3.8 5.2-8.7 10-8.7 5.3 0 6.2 3.9 5.8 6.5-.6 3-3.4 6.3-7.3 6.3-6.6 0-9.5 5.7-10.5 11.5l-2.3 13.1c-.7 4.1-4.7 7.4-8.7 7.4s-6.9-3.3-6.1-7.4l5.4-30.4zM187.4 23.43c1.64-9.25 10.53-16.82 19.78-16.82 7.35 0 12.75 4.7 13.8 11.2l6.74 38c.5 3.1.7 5.7.7 7.6v3.2h.67l1.1-3.1c.8-1.9 1.7-4.4 3.5-7.5L254 17.4c3.2-6.2 10.1-10.7 17.1-10.7 8.8 0 14.7 7.2 13.2 16l-10.7 60.5c-1 5.75-6.6 10.5-12.5 10.5-5.7 0-9.6-4.75-8.6-10.5l8.4-47.97h-.6l-1.7 4.65c-1.08 2.9-2.7 6.4-4.6 10.1L235 86.1c-2.2 4.3-7.1 7.55-11.96 7.55-4.94 0-8.57-3.26-9.3-7.55l-6.35-36.26c-.7-3.63-1-7.35-1.1-10.05 0-1.6-.1-3.2-.1-4.7h-.7L197 83.5c-.97 5.55-6.3 10.07-11.8 10.07-5.7 0-9.4-4.53-8.4-10.06l10.6-60.1z"/></svg>