<?xml version="1.0" encoding="utf-8"?>
<svg xmlns="http://www.w3.org/2000/svg" width="192" height="192" viewBox="0 0 192 192">
  <path fill="#24292e" d="M137.8 98.1c17.23-5.95 29.57-19.7 29.57-40.1 0-5.12-2.6-17.53-12-25.54-6.18-5.27-15.14-11.52-44.06-12.22-5.95-.14-24.13.5-24.13.5v1.05c5.13 3.9 10.65 10.4 13.3 17.9 2.77-.1 6.95-.3 11.08-.1 11.6.62 16.67 2.8 21.9 6.9 5.26 4.13 8.1 11.23 8.06 17.67-.03 8.78-4.2 17.86-16.9 23.02-10.24 4.2-22.65 5.1-22.65 5.1v3.2s7.42 3.56 14.85 13.4c6.4 8.43 43.52 63.1 43.52 63.1H191s-49.58-69.07-53.2-73.9zm-96.73 52.8H23.9V39.5c.24 0 7.7-.1 12.36-.1 19.18 0 29.8 9.92 30.1 23.54.2 8.26-2.26 16.2-10.7 22.02-6.87 4.77-16.45 6.2-16.45 6.2v3.58s13.3 1.98 20.05 5.13c12.57 5.87 16.3 14.98 16.4 26.77.13 18.63-17.86 24.3-34.57 24.3zM1 20.7V172h33.57c44.08 0 67.38-16.24 67.38-46.97 0-18.3-11.5-30.4-29.58-34.6 11.8-6.98 19.36-17.23 19.36-32.5 0-16.34-9.7-37.93-50.3-37.93H1"/>
</svg>
